<?xml version="1.0" encoding="UTF-8" standalone="no"?>
<!DOCTYPE svg PUBLIC "-//W3C//DTD SVG 1.1//EN" "http://www.w3.org/Graphics/SVG/1.1/DTD/svg11.dtd">
<svg width="100%" height="100%" viewBox="0 0 500 500" version="1.1" xmlns="http://www.w3.org/2000/svg" xmlns:xlink="http://www.w3.org/1999/xlink" xml:space="preserve" xmlns:serif="http://www.serif.com/" style="fill-rule:evenodd;clip-rule:evenodd;stroke-linejoin:round;stroke-miterlimit:2;">
    <g transform="matrix(3.528404,0.777007,-0.419929,1.906905,58.493458,114.158377)">
        <path d="M14.943,67.054L4.643,67.054L4.643,52.947L14.943,52.947C16.082,45.622 18.968,38.872 23.16,33.136L15.869,25.845L25.844,15.87L33.135,23.161C38.871,18.969 45.621,16.084 52.946,14.944L52.946,4.644L67.053,4.644L67.053,14.944C74.378,16.083 81.128,18.969 86.864,23.161L94.155,15.87L104.13,25.845L96.839,33.136C101.031,38.872 103.916,45.622 105.056,52.947L115.356,52.947L115.356,67.054L105.056,67.054C103.917,74.379 101.031,81.129 96.839,86.865L104.13,94.156L94.155,104.131L86.864,96.84C81.128,101.032 74.378,103.917 67.053,105.057L67.053,115.357L52.946,115.357L52.946,105.057C45.621,103.918 38.871,101.032 33.135,96.84L25.844,104.131L15.869,94.156L23.16,86.865C18.968,81.129 16.083,74.379 14.943,67.054ZM60,22.125C39.095,22.125 22.124,39.096 22.124,60C22.124,80.905 39.095,97.876 60,97.876C80.904,97.876 97.875,80.905 97.875,60C97.875,39.096 80.904,22.125 60,22.125Z" style="fill:none;stroke:white;stroke-width:2.15px;"/>
        <path d="M14.943,67.054L4.643,67.054L4.643,52.947L14.943,52.947C16.082,45.622 18.968,38.872 23.16,33.136L15.869,25.845L25.844,15.87L33.135,23.161C38.871,18.969 45.621,16.084 52.946,14.944L52.946,4.644L67.053,4.644L67.053,14.944C74.378,16.083 81.128,18.969 86.864,23.161L94.155,15.87L104.13,25.845L96.839,33.136C101.031,38.872 103.916,45.622 105.056,52.947L115.356,52.947L115.356,67.054L105.056,67.054C103.917,74.379 101.031,81.129 96.839,86.865L104.13,94.156L94.155,104.131L86.864,96.84C81.128,101.032 74.378,103.917 67.053,105.057L67.053,115.357L52.946,115.357L52.946,105.057C45.621,103.918 38.871,101.032 33.135,96.84L25.844,104.131L15.869,94.156L23.16,86.865C18.968,81.129 16.083,74.379 14.943,67.054ZM60,22.125C39.095,22.125 22.124,39.096 22.124,60C22.124,80.905 39.095,97.876 60,97.876C80.904,97.876 97.875,80.905 97.875,60C97.875,39.096 80.904,22.125 60,22.125Z"/>
    </g>
    <g transform="matrix(-0.85768,-0,0,-1.025004,474.225219,624.995413)">
        <path d="M385.497,384.006C387.984,390.6 389.346,397.747 389.346,405.21C389.346,438.325 362.536,465.21 329.514,465.21L329.398,465.21L193.351,465.21C160.329,465.21 133.519,438.325 133.519,405.21C133.519,397.705 134.896,390.52 137.41,383.895C137.994,382.356 201.691,239.841 237.557,159.611C241.916,149.86 250.222,142.042 261.432,142.042C272.727,142.042 280.703,150.225 285.378,159.84L385.497,384.006C385.357,383.737 385.307,383.809 385.422,384.114L385.497,384.006Z" style="fill:none;stroke:white;stroke-width:6.61px;stroke-linecap:round;stroke-miterlimit:1.5;"/>
        <path d="M385.497,384.006C387.984,390.6 389.346,397.747 389.346,405.21C389.346,438.325 362.536,465.21 329.514,465.21L329.398,465.21L193.351,465.21C160.329,465.21 133.519,438.325 133.519,405.21C133.519,397.705 134.896,390.52 137.41,383.895C137.994,382.356 201.691,239.841 237.557,159.611C241.916,149.86 250.222,142.042 261.432,142.042C272.727,142.042 280.703,150.225 285.378,159.84L385.497,384.006C385.357,383.737 385.307,383.809 385.422,384.114L385.497,384.006Z"/>
    </g>
    <g transform="matrix(0.874429,0,0,0.626554,32.860575,83.98512)">
        <path d="M314.557,205.315C316.073,205.315 317.528,206.156 318.6,207.652C319.672,209.149 320.275,211.179 320.275,213.295C320.275,214.115 320.275,214.949 320.275,215.769C320.275,217.885 319.672,219.915 318.6,221.411C317.528,222.908 316.073,223.749 314.557,223.749C291.459,223.749 205.183,223.749 182.086,223.749C180.569,223.749 179.115,222.908 178.043,221.411C176.97,219.915 176.368,217.885 176.368,215.769C176.368,214.949 176.368,214.115 176.368,213.295C176.368,211.179 176.97,209.149 178.043,207.652C179.115,206.156 180.569,205.315 182.086,205.315C205.183,205.315 291.459,205.315 314.557,205.315Z" style="fill:white;"/>
    </g>
    <g transform="matrix(0.748859,0,0,0.626554,64.042441,138.195847)">
        <path d="M313.598,205.315C317.285,205.315 320.275,208.888 320.275,213.295C320.275,214.115 320.275,214.949 320.275,215.769C320.275,220.176 317.285,223.749 313.598,223.749C289.497,223.749 207.145,223.749 183.045,223.749C179.357,223.749 176.368,220.176 176.368,215.769C176.368,214.949 176.368,214.115 176.368,213.295C176.368,208.888 179.357,205.315 183.045,205.315C207.145,205.315 289.497,205.315 313.598,205.315Z" style="fill:white;"/>
    </g>
    <g transform="matrix(0.585915,0,0,0.626554,104.504714,189.361799)">
        <path d="M311.741,205.315C316.454,205.315 320.275,208.888 320.275,213.295C320.275,214.115 320.275,214.949 320.275,215.769C320.275,220.176 316.454,223.749 311.741,223.749C286.185,223.749 210.458,223.749 184.902,223.749C180.189,223.749 176.368,220.176 176.368,215.769C176.368,214.949 176.368,214.115 176.368,213.295C176.368,208.888 180.189,205.315 184.902,205.315C210.458,205.315 286.185,205.315 311.741,205.315Z" style="fill:white;"/>
    </g>
    <g transform="matrix(3.528404,0.777007,-0.419929,1.906905,58.493458,114.158377)">
        <path d="M104.955,52.326C104.99,52.532 105.024,52.739 105.056,52.947L115.356,52.947L115.356,67.054L105.056,67.054C103.917,74.379 101.031,81.129 96.839,86.865L104.13,94.156L94.155,104.131L86.864,96.84C81.128,101.032 74.378,103.917 67.053,105.057L67.053,115.357L52.946,115.357L52.946,105.057C45.621,103.918 38.871,101.032 33.135,96.84L25.844,104.131L15.869,94.156L23.16,86.865C21.415,84.477 19.896,81.913 18.635,79.205L26.091,76.883C32.303,89.324 45.16,97.876 60,97.876C80.904,97.876 97.875,80.905 97.875,60C97.875,58.184 97.747,56.396 97.499,54.648L104.955,52.326Z" style="fill:none;stroke:white;stroke-width:2.15px;"/>
        <path d="M104.955,52.326C104.99,52.532 105.024,52.739 105.056,52.947L115.356,52.947L115.356,67.054L105.056,67.054C103.917,74.379 101.031,81.129 96.839,86.865L104.13,94.156L94.155,104.131L86.864,96.84C81.128,101.032 74.378,103.917 67.053,105.057L67.053,115.357L52.946,115.357L52.946,105.057C45.621,103.918 38.871,101.032 33.135,96.84L25.844,104.131L15.869,94.156L23.16,86.865C21.415,84.477 19.896,81.913 18.635,79.205L26.091,76.883C32.303,89.324 45.16,97.876 60,97.876C80.904,97.876 97.875,80.905 97.875,60C97.875,58.184 97.747,56.396 97.499,54.648L104.955,52.326Z"/>
    </g>
    <g transform="matrix(3.528404,0.777007,-0.419929,1.906905,58.493458,114.158377)">
        <path d="M99.331,36.927C102.179,41.767 104.158,47.179 105.056,52.947L115.356,52.947L115.356,67.054L105.056,67.054C103.917,74.379 101.031,81.129 96.839,86.865L104.13,94.156L94.155,104.131L86.864,96.84C81.128,101.032 74.378,103.917 67.053,105.057L67.053,115.357L52.946,115.357L52.946,105.057C45.621,103.918 38.871,101.032 33.135,96.84L25.844,104.131L15.869,94.156L23.16,86.865C18.968,81.129 16.083,74.379 14.943,67.054L4.643,67.054L4.643,52.947L14.943,52.947C15.492,49.417 16.447,46.02 17.758,42.805L26.581,42.17C23.737,47.485 22.124,53.556 22.124,60C22.124,80.905 39.095,97.876 60,97.876C80.904,97.876 97.875,80.905 97.875,60C97.875,51.605 95.138,43.845 90.508,37.563L99.331,36.927Z"/>
    </g>
    <g transform="matrix(3.528404,0.777007,-0.419929,1.906905,58.493458,114.158377)">
        <path d="M102.891,44.496C103.871,47.203 104.602,50.029 105.056,52.947L115.356,52.947L115.356,67.054L105.056,67.054C103.917,74.379 101.031,81.129 96.839,86.865L104.13,94.156L94.155,104.131L86.864,96.84C81.128,101.032 74.378,103.917 67.053,105.057L67.053,115.357L52.946,115.357L52.946,105.057C45.621,103.918 38.871,101.032 33.135,96.84L25.844,104.131L15.869,94.156L23.16,86.865C18.968,81.129 16.083,74.379 14.943,67.054L4.643,67.054L4.643,52.947L14.943,52.947C15.262,50.892 15.719,48.883 16.304,46.929L24.53,46.697C22.975,50.837 22.124,55.32 22.124,60C22.124,80.905 39.095,97.876 60,97.876C80.904,97.876 97.875,80.905 97.875,60C97.875,54.567 96.728,49.4 94.664,44.727L102.891,44.496Z"/>
    </g>
    <g transform="matrix(1.618005,0,0,1.865974,-126.342104,-321.921864)">
        <path d="M180.074,245.267C180.074,245.267 168.985,217.039 174.426,214.396C179.868,211.752 212.723,229.408 212.723,229.408C212.723,229.408 225.972,180.827 232.596,180.827C239.221,180.827 252.47,229.408 252.47,229.408C252.47,229.408 285.325,211.752 290.766,214.396C296.208,217.039 285.119,245.267 285.119,245.267L180.074,245.267Z" style="fill:none;stroke:white;stroke-width:3.58px;stroke-linecap:round;stroke-miterlimit:1.5;"/>
        <path d="M180.074,245.267C180.074,245.267 168.985,217.039 174.426,214.396C179.868,211.752 212.723,229.408 212.723,229.408C212.723,229.408 225.972,180.827 232.596,180.827C239.221,180.827 252.47,229.408 252.47,229.408C252.47,229.408 285.325,211.752 290.766,214.396C296.208,217.039 285.119,245.267 285.119,245.267L180.074,245.267Z"/>
    </g>
</svg>
