<?xml version="1.0" encoding="UTF-8" standalone="no"?>
<!DOCTYPE svg PUBLIC "-//W3C//DTD SVG 1.1//EN" "http://www.w3.org/Graphics/SVG/1.1/DTD/svg11.dtd">
<svg width="100%" height="100%" viewBox="0 0 500 500" version="1.1" xmlns="http://www.w3.org/2000/svg" xmlns:xlink="http://www.w3.org/1999/xlink" xml:space="preserve" xmlns:serif="http://www.serif.com/" style="fill-rule:evenodd;clip-rule:evenodd;stroke-linejoin:round;stroke-miterlimit:2;">
    <g transform="matrix(3.528404,0.777007,-0.419929,1.906905,58.493458,114.158377)">
        <path d="M18.635,79.205C16.868,75.409 15.608,71.329 14.943,67.054L4.643,67.054L4.643,52.947L14.943,52.947C15.492,49.417 16.447,46.02 17.758,42.805C19.167,39.351 20.988,36.107 23.16,33.136L15.869,25.845L25.844,15.87L26.979,17.005C25.555,23.63 25.155,31.453 26.105,39.442C26.216,40.369 26.342,41.281 26.484,42.177L26.581,42.17C26.556,42.217 26.531,42.264 26.506,42.312C23.709,47.593 22.124,53.613 22.124,60C22.124,66.065 23.553,71.799 26.091,76.883C29.848,84.408 36.037,90.51 43.624,94.158C45.166,94.899 46.766,95.539 48.414,96.068C52.066,97.242 55.959,97.876 60,97.876C67.647,97.876 74.768,95.605 80.724,91.7C82.017,90.853 83.254,89.93 84.43,88.935C92.651,81.985 97.875,71.598 97.875,60C97.875,58.184 97.747,56.396 97.499,54.648C96.602,48.315 94.136,42.485 90.508,37.563C89.889,36.722 89.235,35.908 88.55,35.123C88.969,29.622 89.218,26.34 89.226,26.171C89.313,24.395 89.335,22.578 89.288,20.737L94.155,15.87L104.13,25.845L96.839,33.136C97.73,34.355 98.562,35.62 99.331,36.927C102.076,41.593 104.015,46.79 104.955,52.326C104.99,52.532 105.024,52.739 105.056,52.947L115.356,52.947L115.356,67.054L105.056,67.054C103.917,74.379 101.031,81.129 96.839,86.865L104.13,94.156L94.155,104.131L86.864,96.84C85.828,97.597 84.759,98.312 83.659,98.981C82.478,99.7 81.261,100.367 80.012,100.979C75.989,102.949 71.633,104.344 67.053,105.057L67.053,115.357L52.946,115.357L52.946,105.057C52.451,104.98 51.959,104.895 51.469,104.802C49.939,104.512 48.436,104.146 46.965,103.707C41.937,102.208 37.272,99.864 33.135,96.84L25.844,104.131L15.869,94.156L23.16,86.865C21.415,84.477 19.896,81.913 18.635,79.205ZM29.981,49.26C29.002,46.115 28.25,42.579 27.795,38.753C25.774,21.776 30.349,5.461 38.005,2.341L38.032,2.33L69.573,-10.521C77.228,-13.641 85.084,-2.391 87.105,14.586C87.563,18.434 87.682,22.247 87.503,25.881C87.478,26.384 85.318,54.594 82.852,86.739C76.586,91.724 68.637,94.675 59.999,94.675C54.549,94.675 49.37,93.507 44.719,91.396L29.981,49.26C30.03,49.384 30.037,49.343 29.992,49.197L29.981,49.26ZM73.943,76.768L53.855,84.954C53.109,85.258 52.637,86.624 52.801,88.005L52.893,88.78C53.058,90.161 53.796,91.034 54.543,90.73L74.631,82.545C75.377,82.241 75.849,80.875 75.685,79.493L75.593,78.718C75.428,77.337 74.69,76.464 73.943,76.768ZM74.067,49.886L47.64,60.654C46.894,60.958 46.422,62.324 46.586,63.706L46.679,64.481C46.843,65.862 47.581,66.735 48.328,66.431L74.754,55.663C75.501,55.358 75.973,53.992 75.808,52.611L75.716,51.836C75.552,50.455 74.813,49.582 74.067,49.886ZM73.282,21.777L41.971,34.535C41.613,34.682 41.3,35.085 41.103,35.657C40.905,36.23 40.838,36.924 40.917,37.587L41.009,38.362C41.088,39.025 41.306,39.603 41.616,39.969C41.925,40.335 42.3,40.458 42.659,40.312L73.97,27.554C74.328,27.408 74.641,27.004 74.838,26.432C74.963,26.07 75.036,25.659 75.052,25.239C75.062,24.994 75.053,24.746 75.024,24.502L74.931,23.727C74.852,23.064 74.634,22.486 74.325,22.12C74.016,21.754 73.641,21.631 73.282,21.777ZM81.565,103.511C80.284,120.196 79.005,136.844 77.97,150.323C77.554,155.734 76.106,160.526 73.507,161.585C70.888,162.652 68.54,159.211 66.869,154.723L54.22,118.558L67.053,118.558C68.008,118.558 68.783,117.125 68.783,115.357L68.783,107.972C73.309,107.105 77.603,105.583 81.565,103.511ZM51.139,111.667L49.234,106.611C49.484,106.663 50.79,106.969 51.054,107.123L51.139,111.667ZM30.079,-0.938C30.079,-0.938 22.094,-25.307 24.18,-28.744C26.266,-32.18 42.597,-21.558 42.597,-21.558C42.597,-21.558 42.995,-69.259 45.892,-70.439C48.79,-71.62 59.98,-28.641 59.98,-28.641C59.98,-28.641 72.389,-50.974 75.062,-49.477C77.736,-47.98 76.021,-19.658 76.021,-19.658L30.079,-0.938Z" style="fill:url(#_Linear1);"/>
    </g>
    <defs>
        <linearGradient id="_Linear1" x1="0" y1="0" x2="1" y2="0" gradientUnits="userSpaceOnUse" gradientTransform="matrix(119.571943,-69.522118,37.572814,221.247593,-7.47814,101.47383)"><stop offset="0" style="stop-color:rgb(255,239,0);stop-opacity:1"/><stop offset="0.5" style="stop-color:rgb(255,177,0);stop-opacity:1"/><stop offset="1" style="stop-color:rgb(255,142,0);stop-opacity:1"/></linearGradient>
    </defs>
</svg>
