<?xml version="1.0" encoding="UTF-8" standalone="no"?>
<!DOCTYPE svg PUBLIC "-//W3C//DTD SVG 1.1//EN" "http://www.w3.org/Graphics/SVG/1.1/DTD/svg11.dtd">
<svg width="100%" height="100%" viewBox="0 0 500 500" version="1.1" xmlns="http://www.w3.org/2000/svg" xmlns:xlink="http://www.w3.org/1999/xlink" xml:space="preserve" xmlns:serif="http://www.serif.com/" style="fill-rule:evenodd;clip-rule:evenodd;stroke-linejoin:round;stroke-miterlimit:2;">
    <g transform="matrix(3.528404,0.777007,-0.419929,1.906905,58.493458,114.158377)">
        <path d="M46.965,103.707C41.937,102.208 37.272,99.864 33.135,96.84L25.844,104.131L15.869,94.156L23.16,86.865C18.968,81.129 16.083,74.379 14.943,67.054L4.643,67.054L4.643,52.947L14.943,52.947C16.082,45.622 18.968,38.872 23.16,33.136L15.869,25.845L25.844,15.87L26.979,17.005C25.555,23.63 25.155,31.453 26.105,39.442C26.221,40.416 26.355,41.373 26.506,42.312C23.709,47.593 22.124,53.613 22.124,60C22.124,75.041 30.91,88.045 43.624,94.158L46.965,103.707ZM89.288,20.737L94.155,15.87L104.13,25.845L96.839,33.136C101.031,38.872 103.916,45.622 105.056,52.947L115.356,52.947L115.356,67.054L105.056,67.054C103.917,74.379 101.031,81.129 96.839,86.865L104.13,94.156L94.155,104.131L86.864,96.84C85.828,97.597 84.759,98.312 83.659,98.981C83.917,95.613 84.175,92.256 84.43,88.935C92.651,81.985 97.875,71.598 97.875,60C97.875,50.482 94.356,41.779 88.55,35.123C88.969,29.622 89.218,26.34 89.226,26.171C89.313,24.395 89.335,22.578 89.288,20.737ZM30.026,20.052L33.135,23.161C38.871,18.969 45.621,16.084 52.946,14.944L52.946,4.644L67.053,4.644L67.053,14.944C73.952,16.017 80.34,18.639 85.852,22.442C85.856,23.505 85.831,24.556 85.78,25.591C85.773,25.73 85.604,27.977 85.31,31.834C82.29,29.117 78.831,26.879 75.052,25.239C75.062,24.994 75.053,24.746 75.024,24.502L74.931,23.727C74.852,23.064 74.634,22.486 74.325,22.12C74.016,21.754 73.641,21.631 73.282,21.777L69.485,23.325C66.453,22.542 63.274,22.125 60,22.125C47.457,22.125 36.329,28.235 29.435,37.639C28.738,31.422 28.999,25.292 30.026,20.052ZM48.414,96.068C52.066,97.242 55.959,97.876 60,97.876C67.647,97.876 74.768,95.605 80.724,91.7C80.488,94.776 80.25,97.876 80.012,100.979C75.989,102.949 71.633,104.344 67.053,105.057L67.053,115.357L55.161,115.357L52.946,109.025L52.946,105.057C52.451,104.98 51.959,104.895 51.469,104.802L48.414,96.068Z" style="fill:white;"/>
    </g>
    <g transform="matrix(-0.85768,-0,0,-1.025004,474.225219,624.995413)">
        <path d="M345.496,294.445L385.497,384.006C385.357,383.737 385.307,383.809 385.422,384.114L385.497,384.006C387.984,390.6 389.346,397.747 389.346,405.21C389.346,438.325 362.536,465.21 329.514,465.21L329.398,465.21L193.351,465.21C160.329,465.21 133.519,438.325 133.519,405.21C133.519,397.705 134.896,390.52 137.41,383.895C137.758,382.979 160.458,332.134 186.342,274.201C214.559,269.676 248.706,270.213 284.239,276.761C306.663,280.893 327.394,286.992 345.496,294.445ZM199.848,243.976C213.286,213.906 226.697,183.903 237.557,159.611C241.916,149.86 250.222,142.042 261.432,142.042C272.727,142.042 280.703,150.225 285.378,159.84L319.71,236.711L266.915,226.982C262.985,226.258 259.097,228.337 258.231,231.626L254.615,245.366C235.573,243.546 217.16,243.123 199.848,243.976ZM329.01,251.867L334.371,262.715C333.368,262.429 328.146,260.87 327.136,260.384L329.01,251.867ZM192.217,261.053C192.889,259.549 193.563,258.042 194.237,256.533C214.494,255.116 236.487,255.588 259.34,258.143C263.094,258.563 266.607,256.506 267.421,253.411L270.897,240.204L314.699,248.275L311.223,261.482C310.408,264.577 312.564,267.679 316.182,268.617C323.18,270.433 329.994,272.408 336.601,274.529L338.321,278.38C322.684,272.819 305.567,268.203 287.373,264.851C253.292,258.571 220.411,257.617 192.217,261.053ZM218.108,299.504L304.757,299.504C307.977,299.504 310.587,297.32 310.587,294.626L310.587,293.114C310.587,290.42 307.977,288.236 304.757,288.236L218.108,288.236C214.888,288.236 212.278,290.42 212.278,293.114L212.278,294.626C212.278,297.32 214.888,299.504 218.108,299.504ZM204.438,349.422L318.427,349.422C321.646,349.422 324.256,347.238 324.256,344.544L324.256,343.032C324.256,340.338 321.646,338.154 318.427,338.154L204.438,338.154C201.218,338.154 198.608,340.338 198.608,343.032L198.608,344.544C198.608,347.238 201.218,349.422 204.438,349.422ZM193.904,402.31L328.961,402.31C330.507,402.31 331.99,401.796 333.083,400.881C334.177,399.967 334.791,398.726 334.791,397.432L334.791,395.92C334.791,394.627 334.177,393.386 333.083,392.471C331.99,391.556 330.507,391.042 328.961,391.042L193.904,391.042C192.357,391.042 190.875,391.556 189.781,392.471C188.688,393.386 188.074,394.627 188.074,395.92L188.074,397.432C188.074,398.726 188.688,399.967 189.781,400.881C190.875,401.796 192.357,402.31 193.904,402.31Z" style="fill:white;"/>
    </g>
    <g transform="matrix(3.528404,0.777007,-0.419929,1.906905,58.493458,114.158377)">
        <path d="M104.955,52.326C104.99,52.532 105.024,52.739 105.056,52.947L115.356,52.947L115.356,67.054L105.056,67.054C103.917,74.379 101.031,81.129 96.839,86.865L104.13,94.156L94.155,104.131L86.864,96.84C81.128,101.032 74.378,103.917 67.053,105.057L67.053,115.357L52.946,115.357L52.946,105.057C45.621,103.918 38.871,101.032 33.135,96.84L25.844,104.131L15.869,94.156L23.16,86.865C21.415,84.477 19.896,81.913 18.635,79.205L26.091,76.883C32.303,89.324 45.16,97.876 60,97.876C80.904,97.876 97.875,80.905 97.875,60C97.875,58.184 97.747,56.396 97.499,54.648L104.955,52.326Z" style="fill:white;"/>
    </g>
    <g transform="matrix(3.528404,0.777007,-0.419929,1.906905,58.493458,114.158377)">
        <path d="M99.331,36.927C102.179,41.767 104.158,47.179 105.056,52.947L115.356,52.947L115.356,67.054L105.056,67.054C103.917,74.379 101.031,81.129 96.839,86.865L104.13,94.156L94.155,104.131L86.864,96.84C81.128,101.032 74.378,103.917 67.053,105.057L67.053,115.357L52.946,115.357L52.946,105.057C45.621,103.918 38.871,101.032 33.135,96.84L25.844,104.131L15.869,94.156L23.16,86.865C18.968,81.129 16.083,74.379 14.943,67.054L4.643,67.054L4.643,52.947L14.943,52.947C15.492,49.417 16.447,46.02 17.758,42.805L26.581,42.17C23.737,47.485 22.124,53.556 22.124,60C22.124,80.905 39.095,97.876 60,97.876C80.904,97.876 97.875,80.905 97.875,60C97.875,51.605 95.138,43.845 90.508,37.563L99.331,36.927Z" style="fill:white;"/>
    </g>
    <g transform="matrix(1.618005,0,0,1.865974,-126.342104,-321.921864)">
        <path d="M180.074,245.267C180.074,245.267 168.985,217.039 174.426,214.396C179.868,211.752 212.723,229.408 212.723,229.408C212.723,229.408 225.972,180.827 232.596,180.827C239.221,180.827 252.47,229.408 252.47,229.408C252.47,229.408 285.325,211.752 290.766,214.396C296.208,217.039 285.119,245.267 285.119,245.267L180.074,245.267Z" style="fill:white;"/>
    </g>
</svg>
